<?xml version="1.0" standalone="no"?>
<!DOCTYPE svg PUBLIC "-//W3C//DTD SVG 20010904//EN"
 "http://www.w3.org/TR/2001/REC-SVG-20010904/DTD/svg10.dtd">
<svg version="1.0" xmlns="http://www.w3.org/2000/svg"
 width="512.000000pt" height="512.000000pt" viewBox="0 0 512.000000 512.000000"
 preserveAspectRatio="xMidYMid meet">

<g transform="translate(0.000000,512.000000) scale(0.100000,-0.100000)"
fill="#000000" stroke="none">
<path d="M445 5110 c-200 -27 -361 -167 -422 -365 -17 -57 -18 -155 -18 -2185
l0 -2125 22 -71 c52 -165 179 -289 348 -341 57 -17 151 -18 2185 -18 l2125 0
71 22 c165 52 289 179 341 348 17 57 18 151 18 2185 l0 2125 -22 71 c-51 162
-174 284 -343 341 -53 17 -143 18 -2150 19 -1152 1 -2122 -2 -2155 -6z m3521
-965 c182 -38 306 -106 439 -239 96 -97 136 -156 191 -284 47 -109 74 -221 77
-322 l2 -85 -196 -3 -196 -2 -7 31 c-3 17 -6 48 -6 68 0 65 -29 175 -65 247
-83 170 -249 264 -465 264 -294 0 -469 -161 -495 -455 -14 -146 37 -278 146
-379 98 -91 224 -157 472 -247 163 -59 333 -139 427 -200 36 -23 106 -83 155
-133 136 -136 199 -271 225 -480 15 -120 8 -271 -19 -376 -74 -290 -286 -490
-606 -571 -114 -29 -358 -37 -482 -15 -456 79 -770 411 -807 854 l-7 82 205 0
206 0 0 -52 c0 -29 7 -84 15 -123 59 -280 304 -449 625 -431 205 11 346 92
422 241 43 84 62 213 48 333 -13 113 -42 182 -107 252 -91 99 -204 161 -490
270 -283 109 -448 200 -578 321 -128 120 -206 260 -241 429 -22 111 -15 312
15 418 96 333 366 555 733 602 96 12 267 5 364 -15z m-1478 -192 l2 -173 -410
0 -410 0 -2 -1392 -3 -1393 -197 -3 -198 -2 0 1395 0 1395 -410 0 -410 0 0
175 0 175 1018 -2 1017 -3 3 -172z"/>
</g>
</svg>
