<?xml version="1.0" standalone="no"?>
<!DOCTYPE svg PUBLIC "-//W3C//DTD SVG 20010904//EN"
 "http://www.w3.org/TR/2001/REC-SVG-20010904/DTD/svg10.dtd">
<svg version="1.0" xmlns="http://www.w3.org/2000/svg"
 width="512.000000pt" height="512.000000pt" viewBox="0 0 512.000000 512.000000"
 preserveAspectRatio="xMidYMid meet">

<g transform="translate(0.000000,512.000000) scale(0.100000,-0.100000)"
fill="#000000" stroke="none">
<path d="M3551 4149 c-29 -5 -94 -23 -144 -39 -315 -106 -513 -349 -558 -687
-33 -247 39 -485 198 -653 159 -169 291 -245 725 -414 80 -32 184 -79 229
-104 95 -53 196 -146 228 -211 48 -94 64 -263 37 -392 -28 -132 -106 -240
-215 -297 -160 -86 -429 -83 -610 5 -83 41 -180 142 -224 233 -34 71 -67 209
-67 281 l0 29 -196 0 -197 0 6 -89 c10 -157 62 -310 151 -444 155 -233 467
-398 786 -414 502 -25 875 227 956 645 17 89 20 301 4 382 -36 193 -122 346
-260 468 -110 96 -293 197 -485 266 -370 135 -535 235 -618 376 -100 171 -63
465 76 603 89 88 201 127 367 127 175 0 278 -37 376 -135 34 -33 73 -84 87
-112 36 -70 66 -182 73 -275 l7 -78 196 0 196 0 -6 94 c-9 119 -38 226 -93
341 -56 115 -87 161 -172 247 -115 116 -234 186 -391 228 -89 25 -367 36 -462
19z"/>
<path d="M450 3950 l0 -170 410 0 410 0 0 -1395 0 -1395 195 0 195 0 0 1395 0
1395 410 0 410 0 0 170 0 170 -1015 0 -1015 0 0 -170z"/>
</g>
</svg>
